<?xml version="1.0" standalone="no"?>
<!DOCTYPE svg PUBLIC "-//W3C//DTD SVG 20010904//EN"
 "http://www.w3.org/TR/2001/REC-SVG-20010904/DTD/svg10.dtd">
<svg version="1.0" xmlns="http://www.w3.org/2000/svg"
 width="203.000000pt" height="202.000000pt" viewBox="0 0 203.000000 202.000000"
 preserveAspectRatio="xMidYMid meet">

<g transform="translate(0.000000,202.000000) scale(0.100000,-0.100000)"
fill="#000000" stroke="none">
<path d="M837 1995 c-138 -26 -271 -80 -387 -157 -190 -126 -354 -363 -412
-594 -31 -125 -32 -342 -1 -464 87 -344 331 -609 661 -720 208 -69 494 -60
682 22 l54 24 -3 57 c-3 66 16 80 21 15 2 -35 7 -43 23 -43 16 0 19 6 17 30
-2 17 4 39 11 50 13 16 17 17 31 6 9 -7 16 -22 16 -33 0 -17 4 -16 44 11 190
131 337 355 392 596 21 95 24 308 5 400 -42 206 -135 380 -275 521 -123 123
-299 223 -466 264 -112 28 -305 35 -413 15z m393 -85 c115 -12 203 -50 244
-103 30 -39 60 -140 71 -239 4 -36 16 -73 27 -89 30 -40 34 -98 10 -152 -17
-37 -19 -53 -11 -88 6 -26 6 -59 1 -86 -5 -24 -7 -43 -3 -43 3 0 21 9 39 20
57 35 99 19 121 -47 10 -32 10 -43 -2 -67 -23 -44 -65 -67 -109 -60 -35 6 -37
5 -43 -22 -3 -16 -11 -37 -16 -47 -5 -10 -7 -34 -3 -54 l7 -35 -49 4 c-40 3
-52 0 -71 -20 -18 -18 -30 -22 -52 -17 -33 7 -101 -3 -101 -15 0 -4 19 -39 41
-79 25 -42 43 -86 44 -109 4 -55 16 -115 27 -129 6 -7 25 -15 44 -19 19 -3 43
-17 54 -31 25 -32 26 -78 3 -88 -10 -4 -79 -10 -153 -12 -165 -6 -172 -3 -176
83 -4 73 -14 124 -24 124 -4 0 -15 18 -24 40 -9 22 -22 40 -29 40 -7 0 -40
-30 -73 -67 -59 -67 -59 -67 -64 -142 -5 -75 -5 -76 -35 -82 -40 -9 -244 -9
-275 0 -36 10 -39 57 -5 94 14 15 34 27 44 27 42 0 60 31 65 110 2 41 9 102
15 135 10 55 9 61 -11 82 -12 13 -33 23 -48 23 -15 0 -35 8 -44 19 -13 14 -26
17 -60 14 -51 -6 -60 3 -44 45 9 24 9 39 -1 69 -15 45 -33 198 -35 303 -1 41
-7 85 -14 97 -24 44 -25 105 -1 148 14 27 26 76 34 147 17 134 29 171 72 218
79 88 332 129 613 100z m-132 -1700 c4 0 5 -22 4 -50 -5 -59 -18 -66 -24 -12
-3 20 -9 46 -13 56 -7 16 -5 18 9 13 10 -4 21 -7 24 -7z m78 -4 c3 -7 4 -33 2
-57 -4 -42 -4 -43 -15 -19 -11 24 -12 25 -12 3 -1 -13 -5 -23 -10 -23 -9 0
-20 98 -12 106 10 10 42 3 47 -10z m40 -54 c7 -36 23 -16 17 22 -3 20 -1 36 6
41 9 5 11 -8 9 -47 -3 -45 -6 -53 -23 -53 -17 0 -20 7 -21 55 -1 30 0 44 2 30
3 -14 7 -35 10 -48z m104 26 c0 -24 -4 -49 -9 -57 -11 -18 -41 -7 -41 15 0 13
3 14 15 4 13 -11 15 -6 15 34 0 25 5 46 10 46 6 0 10 -19 10 -42z m30 -14 c0
-30 -4 -53 -9 -50 -12 8 -13 106 -1 106 6 0 10 -25 10 -56z m40 16 c0 -27 5
-43 15 -46 24 -9 17 -24 -10 -24 -24 0 -25 3 -25 55 0 30 5 55 10 55 6 0 10
-18 10 -40z m-728 -21 c1 -28 0 -53 -4 -56 -5 -2 -8 5 -8 16 0 11 -4 23 -10
26 -5 3 -10 -3 -10 -14 0 -12 -4 -21 -10 -21 -5 0 -10 23 -10 50 0 46 2 50 24
50 22 0 24 -5 28 -51z m64 27 c8 -31 1 -79 -11 -83 -19 -5 -36 14 -41 46 -9
53 39 87 52 37z m69 -31 c0 -44 -3 -50 -22 -53 -22 -3 -23 0 -23 53 0 53 1 56
23 53 19 -3 22 -9 22 -53z m53 41 c-22 -16 -23 -26 -3 -26 8 0 15 -4 15 -10 0
-5 -4 -10 -10 -10 -5 0 -10 -7 -10 -15 0 -8 5 -15 10 -15 6 0 10 -5 10 -11 0
-6 -10 -9 -22 -7 -20 3 -23 10 -26 56 -3 51 -3 52 25 52 25 -1 26 -2 11 -14z
m83 7 c10 -81 1 -122 -16 -70 l-8 22 -4 -22 c-8 -42 -23 -24 -23 27 0 47 2 50
25 50 14 0 25 -3 26 -7z m61 -43 c-5 -59 -22 -67 -22 -10 0 22 -4 40 -10 40
-5 0 -10 5 -10 10 0 6 10 10 23 10 20 0 22 -4 19 -50z"/>
<path d="M865 1879 c-109 -14 -172 -36 -215 -76 -59 -52 -78 -124 -86 -323 -7
-168 -3 -190 37 -190 14 0 17 6 14 33 -15 124 -14 144 10 155 12 6 42 34 66
63 24 29 65 75 90 101 l46 48 74 0 c41 0 89 -4 106 -9 22 -7 46 -5 79 5 61 18
137 18 173 0 15 -8 60 -50 99 -93 38 -43 82 -85 96 -93 25 -13 26 -17 26 -102
0 -72 3 -88 15 -88 22 0 18 -37 -9 -97 -48 -103 -138 -127 -486 -127 -178 -1
-225 2 -272 17 -70 21 -113 63 -131 125 -8 25 -19 48 -25 50 -17 5 -26 -63
-17 -131 4 -34 8 -89 9 -122 1 -33 10 -84 20 -113 10 -29 16 -62 13 -73 -3
-10 -4 -19 -2 -19 11 0 58 31 68 44 11 14 12 10 9 -24 -4 -42 12 -75 26 -55 4
6 14 10 22 10 9 0 14 7 12 19 -6 32 20 119 50 174 30 52 30 52 80 52 l51 0 -7
-52 c-6 -42 -15 -60 -45 -91 l-39 -38 22 -42 c25 -50 29 -54 75 -62 42 -8 101
-49 101 -71 0 -20 -27 -47 -40 -39 -5 3 -19 1 -30 -5 -29 -15 -59 -3 -97 38
l-32 35 -9 -24 c-13 -34 -32 -116 -32 -139 0 -13 7 -20 20 -20 11 0 33 -15 51
-34 43 -47 72 -53 113 -21 19 14 46 43 60 65 14 22 39 46 55 55 29 14 30 14
49 -13 11 -15 23 -37 26 -49 9 -27 22 -29 66 -7 18 9 53 19 77 22 25 3 47 10
50 17 2 7 -11 41 -29 75 -18 35 -40 77 -49 94 -20 37 -18 42 21 51 17 4 30 11
30 16 0 5 25 25 55 44 48 31 55 40 55 68 0 18 7 41 15 51 12 16 15 17 15 4 0
-24 67 -18 112 10 20 12 40 21 45 20 4 -1 28 6 51 17 42 19 44 21 38 54 -3 19
-10 39 -15 44 -13 13 -77 -26 -113 -67 -14 -17 -30 -27 -34 -23 -10 9 -9 61 1
143 5 41 3 73 -5 98 -6 20 -13 92 -15 159 -5 202 -38 342 -91 389 -36 31 -108
57 -194 67 -98 13 -274 12 -375 0z m235 -841 c0 -4 -9 -12 -20 -18 -23 -12
-52 -6 -69 13 -8 10 1 13 39 13 28 0 50 -3 50 -8z m190 -34 c11 -26 20 -59 20
-75 0 -16 5 -29 11 -29 19 0 -2 -20 -42 -40 l-39 -20 0 46 c0 28 -6 51 -16 61
-11 12 -14 26 -9 52 9 46 12 51 35 51 13 0 26 -15 40 -46z m-232 -45 c41 -9
44 -12 36 -32 -7 -18 -34 -11 -34 8 0 9 -14 15 -37 17 -20 2 -38 9 -41 17 -3
10 2 11 19 6 13 -5 39 -11 57 -16z m67 -43 c-10 -25 -25 -46 -35 -49 -16 -4
-17 -2 -7 13 6 10 15 16 19 14 4 -3 9 5 10 18 2 37 3 42 13 58 17 27 17 -9 0
-54z m-99 -12 c-9 -6 -19 -25 -22 -43 -4 -17 -11 -34 -15 -37 -11 -7 -11 -4 0
32 5 16 12 42 16 57 5 25 8 27 21 16 14 -12 14 -14 0 -25z m24 -38 c0 -3 -4
-8 -10 -11 -5 -3 -10 -1 -10 4 0 6 5 11 10 11 6 0 10 -2 10 -4z m-145 -276
c14 -28 14 -30 -6 -40 -23 -13 -22 -13 -38 17 -15 30 -14 41 7 46 9 3 18 5 19
6 1 0 9 -12 18 -29z"/>
<path d="M1300 1541 c-41 -13 -111 -61 -105 -71 10 -17 48 -10 90 15 27 17 55
25 85 25 39 0 43 2 30 15 -19 19 -68 26 -100 16z"/>
<path d="M714 1525 c-47 -20 -54 -38 -11 -30 25 5 51 0 93 -17 61 -24 94 -26
94 -3 0 12 -71 47 -120 58 -14 3 -39 0 -56 -8z"/>
<path d="M1275 1455 c-61 -60 -5 -157 81 -141 97 19 79 166 -21 166 -25 0 -44
-8 -60 -25z"/>
<path d="M695 1445 c-54 -53 -16 -145 60 -145 25 0 44 8 60 25 17 16 25 35 25
60 0 25 -8 44 -25 60 -16 17 -35 25 -60 25 -25 0 -44 -8 -60 -25z"/>
<path d="M1016 1136 c8 -21 32 -28 55 -16 31 17 22 30 -21 30 -30 0 -38 -3
-34 -14z"/>
<path d="M1500 850 c0 -5 5 -10 10 -10 6 0 10 5 10 10 0 6 -4 10 -10 10 -5 0
-10 -4 -10 -10z"/>
<path d="M1387 823 c-13 -12 -7 -25 8 -19 8 3 15 0 15 -6 0 -7 5 -6 15 2 8 7
15 16 15 21 0 10 -44 12 -53 2z"/>
<path d="M1305 395 c-27 -13 -62 -25 -77 -25 -23 0 -28 -4 -28 -25 0 -25 0
-25 99 -25 171 0 219 14 175 51 -14 12 -60 32 -104 45 -8 2 -37 -7 -65 -21z"/>
<path d="M742 398 c-7 -7 -27 -18 -44 -24 -33 -11 -57 -38 -45 -50 10 -10 193
-16 245 -9 37 6 43 9 40 28 -2 17 -12 23 -43 27 -22 3 -57 13 -77 23 -44 20
-60 21 -76 5z"/>
<path d="M1151 184 c0 -11 3 -14 6 -6 3 7 2 16 -1 19 -3 4 -6 -2 -5 -13z"/>
<path d="M630 180 c0 -5 5 -10 11 -10 5 0 7 5 4 10 -3 6 -8 10 -11 10 -2 0 -4
-4 -4 -10z"/>
<path d="M703 155 c0 -22 2 -30 4 -17 2 12 2 30 0 40 -3 9 -5 -1 -4 -23z"/>
<path d="M760 180 c0 -5 5 -10 10 -10 6 0 10 5 10 10 0 6 -4 10 -10 10 -5 0
-10 -4 -10 -10z"/>
<path d="M765 141 c-3 -5 -1 -12 5 -16 5 -3 10 1 10 9 0 18 -6 21 -15 7z"/>
<path d="M900 180 c0 -5 5 -10 10 -10 6 0 10 5 10 10 0 6 -4 10 -10 10 -5 0
-10 -4 -10 -10z"/>
<path d="M1510 174 c0 -14 4 -23 10 -19 6 3 10 15 10 26 0 10 -4 19 -10 19 -5
0 -10 -12 -10 -26z"/>
</g>
</svg>
